HIERARCHY
ROOT pelvis
{
  OFFSET 0 100 0
  CHANNELS 6 Xposition Yposition Zposition Zrotation Xrotation Yrotation
  JOINT pelvis_right_femur
  {
    OFFSET -10.78128 -3.44521 -0.5502486
    CHANNELS 3 Zrotation Xrotation Yrotation
    JOINT right_femur_tibia
    {
      OFFSET -0.8047443 -44.0398 -0.1307829
      CHANNELS 3 Zrotation Xrotation Yrotation
      JOINT right_tibia_foot
      {
        OFFSET 3.006224 -47.83518 -5
        CHANNELS 3 Zrotation Xrotation Yrotation
        End Site
        {
          OFFSET 0 -5 15
        }
      }
    }
  }
  JOINT pelvis_left_femur
  {
    OFFSET 10.78128 -3.44521 -0.5502486
    CHANNELS 3 Zrotation Xrotation Yrotation
    JOINT left_femur_tibia
    {
      OFFSET 0.8047443 -44.0398 -0.1307829
      CHANNELS 3 Zrotation Xrotation Yrotation
      JOINT left_tibia_foot
      {
        OFFSET -4.370144 -48.10324 -4.275266
        CHANNELS 3 Zrotation Xrotation Yrotation
        End Site
        {
          OFFSET 0 -5 15
        }
      }
    }
  }
  JOINT pelvis_spine1
  {
    OFFSET 0 6.468898 -3.129235
    CHANNELS 3 Zrotation Xrotation Yrotation
    JOINT spine1
    {
      OFFSET 0 23.15396 4.99043
      CHANNELS 3 Zrotation Xrotation Yrotation
      JOINT spine2
      {
        OFFSET 0 20.79997 -5.064912
        CHANNELS 3 Zrotation Xrotation Yrotation
        JOINT neck
        {
          OFFSET 0 14.38658 9.616178
          CHANNELS 3 Zrotation Xrotation Yrotation
          End Site
          {
            OFFSET 0 20 0
          }
        }
      }
      JOINT right_manubrium
      {
        OFFSET -5.722621 16.35077 3.967754
        CHANNELS 3 Zrotation Xrotation Yrotation
        JOINT right_clavicle
        {
          OFFSET -13.16364 1.694482 -4.693211
          CHANNELS 3 Zrotation Xrotation Yrotation
          JOINT right_humerus
          {
            OFFSET -28.5034 -0.3100689 -2.792744
            CHANNELS 3 Zrotation Xrotation Yrotation
            JOINT right_radius
            {
              OFFSET -25.15693 0.02248979 -1.271978
              CHANNELS 3 Zrotation Xrotation Yrotation
              End Site
              {
                OFFSET -15 0 0
              }
            }
          }
        }
      }
      JOINT left_manubrium
      {
        OFFSET 5.722621 16.35077 3.967754
        CHANNELS 3 Zrotation Xrotation Yrotation
        JOINT left_clavicle
        {
          OFFSET 13.16364 1.694482 -4.693211
          CHANNELS 3 Zrotation Xrotation Yrotation
          JOINT left_humerus
          {
            OFFSET 29.39168 -1.063119 -2.237045
            CHANNELS 3 Zrotation Xrotation Yrotation
            JOINT left_radius
            {
              OFFSET 24.59957 -0.9528479 0.9047498
              CHANNELS 3 Zrotation Xrotation Yrotation
              End Site
              {
                OFFSET 15 -0 -0
              }
            }
          }
        }
      }
    }
  }
}
MOTION
Frames: 9
Frame Time: 0.0416666666667
-932.3387 105.0316 2715.806 -7.037273 -6.193251 -54.07073 0.4174383 -8.184304 -0.6376889 -0 46.01724 -0 -7.69253 7.40901 -2.27028 -5.045797 3.619139 -10.02095 -0 14.46829 -0 0.8554059 -13.10046 17.80034 1.973081 -3.919907 8.0365 0.2502511 17.65963 -6.870838 1.768352 18.46009 1.457994 -1.624633 -22.18651 5.427509 -5.767231 -31.83839 11.8078 94.74692 16.09778 -13.62664 -0 0 23.95537 -21.93657 16.50769 15.6441 0.7117208 -24.16581 -7.967096 -89.93373 12.66632 33.42843 0 0 -23.95587 4.920767 11.06307 10.59214
-936.3262 104.9368 2719.344 -6.604736 -5.942342 -53.35666 0.347898 -13.84915 -1.979983 -0 37.52003 -0 -7.641701 5.698365 -2.601995 -5.027002 7.377039 -9.597544 -0 12.52366 -0 0.7156957 -15.12049 16.59353 2.141531 -4.155068 8.134476 0.3629653 18.02951 -7.407954 1.665171 18.28554 1.537518 -1.569595 -22.50329 5.32515 -6.113064 -31.68849 11.8198 95.90588 15.75193 -15.53817 -0 0 22.57639 -21.46422 16.12721 14.77832 0.8999569 -25.51478 -8.267131 -88.70253 12.47484 31.95981 0 0 -27.41435 5.878868 10.824 9.895361
-940.4646 104.2795 2722.87 -5.801883 -5.677328 -52.7471 0.07541467 -18.41082 -3.381574 -0 27.53029 -0 -7.313112 4.017136 -2.844429 -5.220665 10.61268 -9.18193 -0 11.61447 -0 0.4483873 -17.12977 15.38267 2.279462 -4.327565 8.231632 0.4552071 18.30749 -7.884804 1.560502 18.14033 1.646585 -1.509197 -22.86432 5.254415 -6.495172 -31.5464 11.77917 97.0303 15.52706 -17.26925 -0 0 21.23702 -21.01457 15.62347 13.97177 1.065439 -26.73864 -8.50312 -87.54711 12.30828 30.57597 0 0 -30.63656 6.735278 10.45535 9.32535
-944.8513 103.2205 2726.471 -4.850525 -5.340403 -52.2489 -0.05125328 -21.87264 -4.429124 -0 18.28658 -0 -6.865504 2.887784 -3.012816 -5.517984 13.24981 -8.805712 -0 12.17287 -0 0.3387099 -18.6716 14.45846 2.371822 -4.424067 8.304093 0.5231953 18.4655 -8.262443 1.464108 18.05012 1.781142 -1.441557 -23.23553 5.223483 -6.871256 -31.39589 11.69402 98.02955 15.42507 -18.70404 -0 0 20.00623 -20.63385 15.03651 13.28731 1.206483 -27.74032 -8.661003 -86.56702 12.20066 29.3584 0 0 -33.32569 7.428289 10.02229 8.910288
-949.5444 101.9932 2730.2 -4.011655 -4.897291 -51.85907 0.2768608 -24.25591 -4.811446 -0 11.4217 -0 -6.518361 2.526252 -3.147887 -5.739708 15.24818 -8.447302 -0 14.38458 -0 0.4747463 -19.32592 13.93899 2.414754 -4.449213 8.339108 0.5660079 18.50731 -8.513698 1.388387 18.02055 1.917518 -1.376181 -23.56281 5.228677 -7.187572 -31.24594 11.58852 98.7996 15.42363 -19.73171 -0 0 19.00574 -20.35714 14.46547 12.78588 1.314361 -28.43555 -8.740355 -85.85301 12.16709 28.41578 0 0 -35.23049 7.903929 9.614908 8.663595
-954.5724 100.8548 2734.067 -3.502313 -4.380272 -51.57848 1.181566 -25.44534 -4.451433 -0 7.640662 -0 -6.452507 2.805326 -3.301031 -5.732171 16.56707 -8.072282 -0 18.32295 -0 0.658765 -18.84107 13.703 2.415058 -4.41972 8.339417 0.5844019 18.46204 -8.62625 1.344578 18.03782 2.021928 -1.330333 -23.79285 5.25736 -7.39801 -31.12997 11.49205 99.25121 15.49212 -20.26652 -0 0 18.37523 -20.20056 14.02916 12.51358 1.37459 -28.76878 -8.750604 -85.46812 12.20136 27.86242 0 0 -36.20023 8.125407 9.313456 8.588786
-959.9222 100.0501 2738.043 -3.453491 -3.87687 -51.43154 2.575978 -25.22849 -3.477171 -0 6.853626 -0 -6.745826 3.325945 -3.514798 -5.420778 17.0919 -7.671556 -0 24.02897 -0 0.5913624 -17.17537 13.54205 2.385303 -4.354426 8.322024 0.5796316 18.36873 -8.601998 1.338857 18.07452 2.062171 -1.32361 -23.89189 5.292966 -7.480072 -31.09759 11.42655 99.33495 15.61167 -20.26004 -0 0 18.23624 -20.15905 13.82289 12.49372 1.368592 -28.71976 -8.704081 -85.43583 12.27786 27.79477 0 0 -36.20505 8.074487 9.154767 8.689955
-965.5132 99.77698 2742.068 -3.886516 -3.487756 -51.47919 4.210627 -23.47729 -2.135997 -0 8.393515 -0 -7.36012 3.568121 -3.796673 -4.826394 16.57023 -7.266778 -0 31.42039 -0 0.1426014 -14.50691 13.36458 2.338469 -4.267822 8.31222 0.5527887 18.26296 -8.453892 1.371102 18.09719 2.014268 -1.373791 -23.84914 5.319267 -7.436682 -31.20221 11.40117 99.04657 15.78384 -19.70062 -0 0 18.67442 -20.2107 13.90043 12.7269 1.276188 -28.29949 -8.610746 -85.7405 12.35692 28.27512 0 0 -35.31763 7.747674 9.12412 8.976557
-971.1862 100.1348 2746.052 -4.681557 -3.288104 -51.80195 5.739467 -20.3191 -0.7290156 -0 11.11701 -0 -8.153236 3.094073 -4.088064 -4.064182 14.63733 -6.882227 -0 40.02487 -0 -0.5395968 -11.26347 13.2475 2.285305 -4.170523 8.335859 0.5053107 18.17244 -8.20441 1.436267 18.07267 1.863263 -1.494413 -23.66718 5.322232 -7.286293 -31.487 11.41554 98.41837 16.02382 -18.61294 -0 0 19.73241 -20.32306 14.28194 13.19251 1.080101 -27.54659 -8.477859 -86.33104 12.39117 29.31574 0 0 -33.68956 7.157195 9.173639 9.454224
